<?xml version="1.0" encoding="utf-8"?>
<!-- Generator: Adobe Illustrator 28.0.0, SVG Export Plug-In . SVG Version: 6.00 Build 0)  -->
<svg version="1.1" id="Warstwa_1" xmlns="http://www.w3.org/2000/svg" xmlns:xlink="http://www.w3.org/1999/xlink" x="0px" y="0px"
	 viewBox="0 0 566.9 566.9" style="enable-background:new 0 0 566.9 566.9;" xml:space="preserve">
<style type="text/css">
	.st0{fill:#ADBAC7;}
	.st1{fill:#22272E;}
</style>
<g id="Warstwa_1_00000183209733112306913740000000947244809304774310_">
	<path class="st0" d="M61.5,566.4H558c5.4,0,9.7-4.3,9.7-9.7V60.2c0-2.6-1-5-2.8-6.9l-51-51c-1.8-1.8-4.3-2.8-6.9-2.8H10.5
		c-5.4,0-9.7,4.3-9.7,9.7v496.5c0,2.6,1,5,2.8,6.9l51,51C56.5,565.4,58.9,566.4,61.5,566.4z"/>
</g>
<path class="st1" d="M350.7,234.7H217.8c-11.7,0-21.1-9.5-21.1-21.1v0c0-11.7,9.5-21.1,21.1-21.1h116.8c10.7,0,16.1-13,8.5-20.6
	L274.4,103c-4.4-4.4-10.4-6.9-16.7-6.9h-40c-64.9,0-117.6,52.6-117.6,117.6v0c0,64.9,52.6,117.6,117.6,117.6h132.9
	c11.7,0,21.1,9.5,21.1,21.1v0c0,11.7-9.5,21.1-21.1,21.1H234.1c-10.8,0-16.1,13-8.5,20.6l69.6,69c4.4,4.4,10.4,6.8,16.6,6.8h38.8
	c64.9,0,117.6-52.6,117.6-117.6v0C468.2,287.4,415.6,234.7,350.7,234.7z"/>
</svg>
