<?xml version="1.0" encoding="utf-8"?>
<!-- Generator: Adobe Illustrator 28.0.0, SVG Export Plug-In . SVG Version: 6.00 Build 0)  -->
<svg version="1.1" id="Warstwa_1" xmlns="http://www.w3.org/2000/svg" xmlns:xlink="http://www.w3.org/1999/xlink" x="0px" y="0px"
	 viewBox="0 0 566.9 566.9" style="enable-background:new 0 0 566.9 566.9;" xml:space="preserve">
<style type="text/css">
	.st0{fill:#ADBAC7;}
	.st1{fill:#22272E;}
</style>
<g id="Warstwa_1_00000183209733112306913740000000947244809304774310_">
	<polygon class="st0" points="56.7,566.9 566.9,566.9 566.9,56.7 510.2,0 0,0 0,510.2 	"/>
</g>
<path class="st1" d="M329.3,249.2h-74c-10.3,0-19.1-4.2-19.1-15.3c0-11.5,8.8-15.3,19.1-15.3h74.9l-46.7-69l-45.8,0.2
	c-48.9,0-85.2,27.1-85.2,83.7c0,55,36.3,84.4,85.2,84.4h72.5c14.1,0,19.9,5.3,19.9,16c0,9.2-5.7,14.5-19.5,14.5h-72.7l45.7,68.8
	h45.8c51.2,0,85.2-34.4,85.2-85.6C414.5,278.2,380.5,249.2,329.3,249.2z"/>
</svg>
