<?xml version="1.0" encoding="utf-8"?>
<!-- Generator: Adobe Illustrator 28.0.0, SVG Export Plug-In . SVG Version: 6.00 Build 0)  -->
<svg version="1.1" id="Warstwa_1" xmlns="http://www.w3.org/2000/svg" xmlns:xlink="http://www.w3.org/1999/xlink" x="0px" y="0px"
	 viewBox="0 0 566.9 566.9" style="enable-background:new 0 0 566.9 566.9;" xml:space="preserve">
<style type="text/css">
	.st0{fill:#ADBAC7;}
	.st1{fill:#22272E;}
</style>
<g id="Warstwa_1_00000183209733112306913740000000947244809304774310_">
	<polygon class="st0" points="57.5,566.4 567.7,566.4 567.7,56.2 511,-0.5 0.8,-0.5 0.8,509.7 	"/>
</g>
<path class="st1" d="M363.6,192.5l-96.1-96.4h-59.4c-59.6,0-107.9,48.3-107.9,107.9v19.4c0,59.6,48.3,107.9,107.9,107.9h142.6
	c11.7,0,21.1,9.5,21.1,21.1v0c0,11.7-9.5,21.1-21.1,21.1H204.8l97.3,96.4h58.2c59.6,0,107.9-48.3,107.9-107.9v-19.4
	c0-59.6-48.3-107.9-107.9-107.9H217.8c-11.7,0-21.1-9.5-21.1-21.1v0c0-11.7,9.5-21.1,21.1-21.1H363.6z"/>
</svg>
